<?xml version="1.0" encoding="UTF-8" standalone="no"?>
<!-- Created with Inkscape (http://www.inkscape.org/) -->

<svg
   xmlns:dc="http://purl.org/dc/elements/1.1/"
   xmlns:cc="http://creativecommons.org/ns#"
   xmlns:rdf="http://www.w3.org/1999/02/22-rdf-syntax-ns#"
   xmlns:svg="http://www.w3.org/2000/svg"
   xmlns="http://www.w3.org/2000/svg"
   xmlns:sodipodi="http://sodipodi.sourceforge.net/DTD/sodipodi-0.dtd"
   xmlns:inkscape="http://www.inkscape.org/namespaces/inkscape"
   width="186.06743mm"
   height="112.89827mm"
   viewBox="0 0 186.06743 112.89827"
   version="1.1"
   id="svg8"
   inkscape:version="0.92.2 (5c3e80d, 2017-08-06)"
   sodipodi:docname="Signature of Anies Baswedan.svg">
  <title
     id="title3740">Signature of Anies Baswedan</title>
  <defs
     id="defs2" />
  <sodipodi:namedview
     id="base"
     pagecolor="#ffffff"
     bordercolor="#666666"
     borderopacity="1.0"
     inkscape:pageopacity="0.0"
     inkscape:pageshadow="2"
     inkscape:zoom="0.7"
     inkscape:cx="372.88373"
     inkscape:cy="223.68223"
     inkscape:document-units="mm"
     inkscape:current-layer="layer1"
     showgrid="false"
     fit-margin-top="0"
     fit-margin-left="0"
     fit-margin-right="0"
     fit-margin-bottom="0"
     inkscape:window-width="1366"
     inkscape:window-height="705"
     inkscape:window-x="-8"
     inkscape:window-y="-8"
     inkscape:window-maximized="1" />
  <metadata
     id="metadata5">
    <rdf:RDF>
      <cc:Work
         rdf:about="">
        <dc:format>image/svg+xml</dc:format>
        <dc:type
           rdf:resource="http://purl.org/dc/dcmitype/StillImage" />
        <dc:title>Signature of Anies Baswedan</dc:title>
      </cc:Work>
    </rdf:RDF>
  </metadata>
  <g
     inkscape:label="Layer 1"
     inkscape:groupmode="layer"
     id="layer1"
     transform="translate(-20.483938,-15.055604)">
    <path
       inkscape:connector-curvature="0"
       id="path3718"
       d="m 34.635191,125.15887 c -1.870482,-1.87048 -4.017407,-7.84813 -5.421139,-15.09397 -0.52022,-2.68529 -1.568198,-10.275271 -1.578637,-11.433271 -0.0098,-1.084906 -0.669853,0.34561 -0.6814,1.476731 -0.01475,1.44531 -0.492513,2.13351 -1.119735,1.61296 C 25.439025,101.39329 25.30656,98.878629 25.121065,88.181898 24.506167,52.723475 24.147366,38.25413 23.683779,30.220749 23.07717,19.708967 23.048341,16.627994 23.553669,16.315684 c 1.02748,-0.635017 1.247455,0.804437 1.813217,11.865218 0.313911,6.137005 0.567685,11.428568 0.563944,11.759024 -0.01197,1.057185 0.612873,0.643802 1.037916,-0.686663 0.733247,-2.295195 2.459908,-5.220314 3.791737,-6.423538 2.700786,-2.439998 5.586817,-2.38181 8.353493,0.168424 3.831161,3.531441 4.941689,8.97869 6.227333,30.545654 0.540444,9.066096 1.158595,14.401395 1.682094,14.518269 0.180379,0.04029 0.44938,-0.511163 0.597779,-1.225416 0.556307,-2.677523 1.977045,-4.709618 3.292729,-4.709618 2.4022,0 4.502138,2.921605 5.243906,7.295746 0.216147,1.274603 0.493913,2.317472 0.617258,2.317472 0.123344,0 0.579609,-0.774593 1.013919,-1.721299 0.434316,-0.946716 1.167279,-1.968729 1.628805,-2.271127 0.771915,-0.505781 0.909139,-0.50397 1.71279,0.02258 0.480508,0.314835 1.011723,0.935592 1.180476,1.379456 0.367287,0.966025 0.906899,1.360109 1.204046,0.879311 0.37014,-0.598898 2.098815,-0.381919 2.757699,0.346134 0.627994,0.693923 0.630829,0.69331 1.733559,-0.375496 1.267752,-1.228754 2.186385,-1.219508 2.779984,0.02793 0.527453,1.108465 1.492542,5.911191 1.58594,7.892368 0.06319,1.340382 -0.01809,1.544981 -0.61382,1.544981 -0.599426,0 -0.779385,-0.472185 -1.416556,-3.71686 -1.023049,-5.209686 -1.575338,-5.5871 -2.226473,-1.521497 -0.788369,4.92248 -2.587267,4.822385 -2.674338,-0.148815 -0.03351,-1.912507 -0.463464,-2.73248 -1.099374,-2.096571 -0.175263,0.175267 -0.557474,1.464019 -0.849359,2.863904 -0.520123,2.494529 -1.035962,3.35168 -1.648454,2.739195 -0.168894,-0.168901 -0.455451,-1.900565 -0.636797,-3.848156 -0.181344,-1.947601 -0.455858,-3.674398 -0.610033,-3.837334 -0.845998,-0.894085 -2.168145,1.889285 -2.750118,5.789519 -0.456937,3.062255 -0.842854,4.291612 -1.347208,4.291612 -0.67423,0 -1.03851,-1.37825 -1.725818,-6.52964 -0.820018,-6.146038 -1.204765,-7.602495 -2.273577,-8.606592 -1.163902,-1.093428 -2.322991,-0.677845 -3.028713,1.085925 -0.832475,2.080561 -1.344271,8.128362 -1.09489,12.938105 0.234576,4.524231 0.07034,5.918841 -0.697052,5.918841 -0.643941,0 -1.007906,-1.069838 -1.27971,-3.761589 -0.3601,-3.566167 -0.814461,-3.181601 -1.058339,0.895768 -0.725043,12.121881 -1.542085,18.065071 -3.461932,25.182221 -2.078767,7.70629 -4.690166,10.61008 -7.24454,8.05571 z m 3.266431,-2.07595 c 0.999875,-1.27114 1.899126,-3.86569 2.906556,-8.38611 2.192189,-9.83653 3.099795,-21.174055 2.913129,-36.389848 -0.107703,-8.779269 -0.165171,-9.525843 -0.819274,-10.643202 -1.003889,-1.714886 -2.129734,-1.758612 -3.908281,-0.151803 -1.786652,1.614138 -3.936235,4.871815 -6.189537,9.380211 -2.6124,5.226883 -3.137926,7.578632 -3.354518,15.011583 -0.270065,9.268069 0.763131,17.641719 3.066907,24.856079 2.130722,6.67242 3.679626,8.49114 5.385018,6.32309 z M 28.340907,84.057728 c 1.130666,-4.790882 4.529532,-12.263638 7.022773,-15.440275 2.410501,-3.071228 3.684408,-3.874423 6.120738,-3.859095 l 2.050292,0.01294 -0.21928,-5.066157 c -0.4396,-10.15638 -1.809089,-19.498675 -3.332469,-22.733267 -3.057214,-6.491381 -8.662764,-5.245982 -11.095822,2.465187 -1.586243,5.027335 -2.07225,9.416356 -2.080121,18.785142 -0.0091,10.762928 0.511165,27.637996 0.851994,27.637996 0.141076,0 0.447929,-0.811118 0.681895,-1.802475 z M 93.431002,121.4806 c -0.09806,-0.99136 -0.356276,-9.19463 -0.57382,-18.22949 C 92.465231,86.972998 92.454058,86.807541 91.624575,84.995704 90.62294,82.807845 89.708922,78.664016 89.85195,76.959262 c 0.143525,-1.710691 1.28081,-1.726895 1.797788,-0.0256 0.340871,1.121739 0.370961,1.030413 0.452457,-1.373315 0.04802,-1.416235 -0.02922,-5.355932 -0.171665,-8.754891 l -0.258966,-6.179934 -1.11582,0.111715 c -1.503243,0.150489 -1.513433,-0.819993 -0.02149,-2.046217 l 1.100524,-0.904517 -0.07058,-9.56702 c -0.03881,-5.26187 -0.150447,-11.575505 -0.248073,-14.030307 -0.248636,-6.252016 0.180159,-11.975304 0.907619,-12.114294 0.424457,-0.0811 0.812831,0.712152 1.679043,3.429428 0.619779,1.944211 1.66571,4.337513 2.324294,5.318447 1.194391,1.778993 1.2942,2.851431 0.265373,2.851431 -0.287243,0 -1.086458,-0.849744 -1.776031,-1.888314 -0.68957,-1.038571 -1.406823,-1.888311 -1.593889,-1.888311 -0.389555,0 0.0011,26.100314 0.396713,26.519099 0.132258,0.139929 1.098366,0.07445 2.14691,-0.145466 4.882183,-1.024048 9.022803,2.707196 9.023033,8.130951 1.1e-4,2.333948 -0.5458,3.616005 -2.58458,6.069854 -0.73415,0.883612 -1.33482,1.747527 -1.33482,1.919796 0,0.172269 0.65662,0.509391 1.45915,0.749153 0.80254,0.239752 2.02357,0.723217 2.71342,1.074363 1.31227,0.667967 3.38067,2.904136 3.38067,3.654895 0,0.91276 0.89547,0.376742 1.82277,-1.091092 2.05956,-3.260032 5.04685,-5.084298 8.06675,-4.926131 1.69231,0.08866 1.95533,0.19477 1.95533,0.789055 0,0.591297 -0.2861,0.710507 -2.05997,0.858329 -2.28204,0.190166 -4.05187,1.09624 -5.49778,2.81462 -2.31954,2.756606 -3.53305,7.003986 -2.46627,8.632099 1.72172,2.627675 7.39745,-0.02774 10.54569,-4.933877 l 1.12156,-1.74779 -0.39959,-2.85639 c -0.59376,-4.244431 0.10724,-5.54532 2.13059,-3.95376 1.25188,0.98472 1.44812,2.539998 0.67553,5.353674 -0.52663,1.917947 -0.59338,2.822872 -0.35878,4.863795 0.30807,2.680034 0.74652,4.187478 1.21796,4.187478 0.16005,0 1.03079,-1.403105 1.93498,-3.118001 2.28137,-4.326862 7.20417,-10.271833 8.50572,-10.271833 0.54577,0 0.61517,0.348568 0.61517,3.089963 0,1.699479 0.13572,3.089962 0.30159,3.089962 0.16589,0 0.47956,-1.196531 0.69707,-2.658944 0.41573,-2.795185 1.07512,-3.987842 1.80258,-3.260382 0.30824,0.308237 0.30075,0.974121 -0.0319,2.835398 -0.80832,4.523072 -0.40939,8.496793 0.97916,9.75342 0.36381,0.329229 1.26683,0.679801 2.00671,0.77904 1.1679,0.156649 1.44301,0.05616 2.08663,-0.762048 0.53038,-0.674264 0.74137,-1.421003 0.74137,-2.623869 0,-2.185718 0.80282,-4.158895 1.62433,-3.992319 0.53867,0.109233 0.59699,0.501683 0.51609,3.472222 -0.096,3.52535 0.21631,4.697375 1.25175,4.697375 1.30912,0 2.64002,-2.539929 3.59973,-6.869906 0.62579,-2.82334 1.63347,-4.803281 2.44462,-4.803281 0.72514,0 0.65442,0.899214 -0.34083,4.333626 -1.15253,3.977157 -1.39896,6.29058 -0.76055,7.139877 0.46739,0.621778 0.59574,0.524126 2.29414,-1.745425 0.98949,-1.322222 2.13128,-3.226495 2.53731,-4.231711 0.40604,-1.005216 1.15428,-2.135947 1.66275,-2.512728 0.87563,-0.648844 0.97093,-0.654644 1.80249,-0.109789 1.24249,0.814115 1.0924,1.740822 -0.51758,3.195333 -2.39903,2.167382 -3.07148,4.394832 -1.6313,5.403571 0.76075,0.532845 1.58496,0.479824 3.54184,-0.22786 1.29183,-0.467173 4.8696,-2.970344 6.00826,-4.203643 1.4092,-1.526315 3.46559,-3.03844 4.20631,-3.093009 0.66054,-0.04866 0.69564,-0.295196 0.73663,-5.175468 0.0336,-4.001048 0.17007,-5.406597 0.6225,-6.411852 0.77034,-1.711625 1.82863,-1.752295 2.52032,-0.09683 0.68552,1.640678 0.64536,7.159633 -0.0796,10.942944 -0.63613,3.319642 -0.52923,3.801627 1.04017,4.689561 0.82155,0.464808 1.00223,0.457012 1.8544,-0.08 2.94805,-1.85787 5.00954,-2.412166 5.84903,-1.572679 0.77546,0.775449 11.32249,2.726427 15.17988,2.807954 3.3206,0.07017 3.60495,0.129048 3.60495,0.746418 0,0.515561 -0.35083,0.744238 -1.52024,0.990929 -1.92436,0.405958 -5.70587,-0.05927 -12.64147,-1.555132 l -5.23516,-1.129126 -0.94477,0.751878 c -1.95037,1.552164 -2.81281,1.853637 -4.59975,1.607871 -1.02128,-0.140465 -2.08454,-0.560777 -2.67461,-1.057293 -1.25378,-1.054977 -1.4514,-1.037994 -2.36932,0.203558 -1.86377,2.520893 -3.48927,2.502373 -3.48927,-0.03971 0,-0.7322 -0.0913,-1.331283 -0.20293,-1.331283 -0.1116,0 -0.84547,0.551405 -1.6308,1.225329 -1.90324,1.633222 -6.52947,3.879494 -8.53416,4.143761 -1.48259,0.195441 -1.69986,0.125778 -2.68722,-0.861579 -0.59082,-0.59082 -1.1782,-1.074207 -1.30529,-1.074207 -0.1271,1e-5 -0.66255,0.540748 -1.18989,1.20165 -1.23562,1.548601 -2.30251,1.577155 -3.46425,0.09275 l -0.86786,-1.108922 -0.97829,0.937257 c -1.34046,1.284237 -2.55246,1.225084 -3.65848,-0.178566 l -0.87922,-1.115822 -1.0618,0.600825 c -1.89951,1.074869 -4.41981,0.605983 -6.38353,-1.187597 l -0.74244,-0.678108 -0.70947,1.60389 c -1.05021,2.374162 -2.58996,4.134564 -4.64446,5.310035 -2.49595,1.428039 -4.27868,1.429733 -5.47733,0.0049 -0.4816,-0.572358 -1.02965,-1.598421 -1.21789,-2.280139 -0.18823,-0.681729 -0.65724,-1.574811 -1.04226,-1.984632 -0.38501,-0.409831 -0.9815,-1.853559 -1.32555,-3.208296 -0.34404,-1.354737 -0.71949,-2.557136 -0.83435,-2.671995 -0.11487,-0.114859 -1.07023,0.652542 -2.12303,1.705348 -4.18947,4.189463 -8.69174,4.995043 -11.18325,2.000991 -0.98394,-1.182399 -1.08847,-1.228228 -1.43182,-0.627676 -0.84368,1.47563 -2.84155,3.316051 -4.49322,4.139119 -2.047,1.020058 -4.984817,1.181699 -6.558721,0.360859 -2.020718,-1.053876 -2.023173,-1.047142 -1.783477,4.894549 0.452521,11.217489 0.855002,27.999189 0.678367,28.284999 -0.101009,0.16343 -0.472415,0.29715 -0.825344,0.29715 -0.522578,0 -0.674786,-0.33458 -0.819972,-1.80248 z M 131.67622,90.457483 c 1.95594,-1.405208 3.29568,-3.438666 3.59441,-5.455609 0.18516,-1.250067 -0.86027,-7.84503 -1.3158,-8.300563 -0.5396,-0.5396 -3.18238,3.000154 -5.58173,7.47621 -1.62915,3.039219 -1.87033,3.722427 -1.68079,4.761335 0.55914,3.064825 2.1549,3.551063 4.98391,1.518627 z m -29.28515,-2.725756 c 2.81818,-1.404351 4.55864,-4.254669 4.55864,-7.465573 0,-1.596347 -0.11769,-1.846337 -1.48673,-3.158117 -1.52915,-1.465167 -3.58479,-2.258105 -7.171267,-2.766202 -2.363649,-0.334864 -2.690457,-0.944166 -1.066291,-1.988019 1.896371,-1.218788 4.457898,-3.971161 5.073518,-5.45152 0.61549,-1.480058 0.69115,-3.920632 0.16462,-5.310279 -1.12485,-2.968816 -4.849545,-4.450791 -7.954187,-3.164812 l -1.047505,0.433889 0.228959,11.182083 c 0.304766,14.884422 0.388216,15.728405 1.673939,16.929441 1.904776,1.779332 4.431247,2.05228 7.026304,0.759109 z m 71.58039,-7.429573 c -0.37486,-0.374854 -1.12057,1.434628 -1.07362,2.605144 0.0202,0.504584 0.23551,0.271255 0.71655,-0.776656 0.44073,-0.960078 0.56893,-1.616609 0.35707,-1.828488 z M 62.378873,70.667884 c 0.162982,-1.147568 3.327563,-2.618429 6.213411,-2.887913 2.192013,-0.204687 2.307865,-0.178877 2.307865,0.514258 0,0.765055 0.01459,0.759011 -3.435577,1.422988 -1.039828,0.200103 -2.353062,0.668668 -2.918299,1.041235 -1.418962,0.93529 -2.307821,0.898152 -2.167399,-0.09061 z"
       style="fill:#000000;stroke-width:0.34332916" />
  </g>
</svg>
